<?xml version="1.0" encoding="utf-8"?>
<!-- Generator: Adobe Illustrator 27.0.0, SVG Export Plug-In . SVG Version: 6.00 Build 0)  -->
<svg version="1.1" id="Layer_1" xmlns="http://www.w3.org/2000/svg" xmlns:xlink="http://www.w3.org/1999/xlink" x="0px" y="0px"
	 viewBox="0 0 48 48" style="enable-background:new 0 0 48 48;" xml:space="preserve">
<style type="text/css">
	.st0{fill:#FFFFFF;stroke:#010101;stroke-miterlimit:10;}
	.st1{fill:none;stroke:#EB4A5A;stroke-miterlimit:10;}
	.st2{fill:none;stroke:#AEADAD;stroke-miterlimit:10;}
</style>
<ellipse class="st0" cx="24" cy="24" rx="23.25" ry="23.5"/>
<line class="st1" x1="10.4" y1="27.98" x2="30.36" y2="9.53"/>
<line class="st2" x1="38.79" y1="18.84" x2="18.84" y2="37.3"/>
<path class="st1" d="M25.5,8.96l4.41,0.02c0.08-0.01,0.16-0.01,0.26,0.03c0.17,0.07,0.3,0.22,0.39,0.38
	c0.12,0.22,0.18,0.48,0.18,0.73l-0.01,4.11"/>
<path class="st2" d="M23.87,37.71l-4.41-0.02c-0.08,0.01-0.16,0.01-0.26-0.03c-0.17-0.07-0.3-0.22-0.39-0.38
	c-0.12-0.22-0.18-0.48-0.18-0.73l0.01-4.11"/>
<g>
</g>
<g>
</g>
<g>
</g>
<g>
</g>
<g>
</g>
<g>
</g>
</svg>
